<svg xmlns="http://www.w3.org/2000/svg" viewBox="0 0 512 512">
  <defs>
    <linearGradient id="a" x1="64" y1="32" x2="448" y2="480" gradientUnits="userSpaceOnUse">
      <stop stop-color="#00c2a8"/>
      <stop offset=".55" stop-color="#f6b543"/>
      <stop offset="1" stop-color="#ff3d7f"/>
    </linearGradient>
  </defs>
  <rect width="512" height="512" rx="112" fill="#090d13"/>
  <rect x="58" y="58" width="396" height="396" rx="86" fill="url(#a)"/>
  <circle cx="256" cy="256" r="122" fill="#090d13" opacity=".96"/>
  <circle cx="256" cy="256" r="42" fill="url(#a)"/>
  <path d="M322 118v211c0 42-35 72-77 58-28-10-42-38-29-62 12-22 40-31 70-21V161l-116 24v149c0 42-35 72-77 58-28-10-42-38-29-62 12-23 43-32 73-19V158l185-40z" fill="#f6f8fb"/>
</svg>
